<svg width="40" height="40" viewBox="0 0 40 40" fill="none" xmlns="http://www.w3.org/2000/svg">
<path d="M20.625 3.74611C22.4472 3.74611 24.1951 4.44133 25.4844 5.67938C26.6941 6.84103 27.4071 8.39135 27.4915 10.0254L27.5 10.3533V13.7461H32.2618L34.9581 33.6599C35.1292 34.9248 34.7712 36.2077 33.9705 37.1818C33.2147 38.1012 32.1324 38.662 30.9725 38.7374L30.7036 38.7461H9.2964C8.03598 38.7461 6.84342 38.1719 6.02949 37.1818C5.28594 36.2773 4.92414 35.1065 5.01328 33.931L5.04189 33.6598L7.73816 13.7461H13.75V10.3533C13.75 6.70301 16.8293 3.74611 20.625 3.74611ZM30.0762 16.2461H27.5V21.2461H24.9078L24.9075 16.2461H16.3413L16.3422 21.2461H13.75V16.2461H9.92249L7.5193 33.9951C7.45827 34.4462 7.54353 34.9006 7.75217 35.2843L7.84908 35.4442L7.9607 35.5942C8.26107 35.9596 8.67122 36.1847 9.10788 36.2352L9.2964 36.2461H30.7036C31.2093 36.2461 31.696 36.0118 32.0393 35.5942C32.3562 35.2087 32.5205 34.7033 32.498 34.1885L32.4807 33.9953L30.0762 16.2461ZM20.625 6.24611C18.34 6.24611 16.4749 7.96144 16.349 10.1203L16.3422 10.3533L16.3413 13.7461H24.9075L24.9078 10.3533C24.9078 9.26511 24.4575 8.22121 23.6554 7.45098C22.8522 6.67971 21.762 6.24611 20.625 6.24611Z" fill="black" stroke="black" stroke-width="0.3" stroke-linecap="square" stroke-linejoin="round"/>
</svg>
