<svg width="32" height="32" viewBox="0 0 32 32" fill="none" xmlns="http://www.w3.org/2000/svg">
<g clip-path="url(#clip0_1_309)">
<path d="M29.1911 1.08447C29.6711 1.08447 30.08 1.26225 30.4178 1.58225C30.7556 1.93781 30.9156 2.32892 30.9156 2.82669V30.2756C30.9156 30.7556 30.7378 31.1645 30.4178 31.5022C30.2559 31.6666 30.0618 31.7957 29.8477 31.8814C29.6335 31.967 29.4039 32.0074 29.1733 32H21.3689V20.0889H25.3689L25.92 15.3778H21.3689V12.3556C21.3689 11.6445 21.5467 11.0756 21.8667 10.7022C22.1867 10.3467 22.7556 10.1334 23.6445 10.1334H26.08V5.95558C25.0133 5.84892 23.8222 5.77781 22.5067 5.77781C20.7111 5.77781 19.2533 6.31114 18.1511 7.37781C17.0489 8.44447 16.4978 9.93781 16.4978 11.8756V15.3778H12.5156V20.0889H16.4978V32H1.74223C1.24445 32 0.853341 31.8222 0.497786 31.5022C0.333419 31.3404 0.204338 31.1463 0.118669 30.9321C0.033 30.7179 -0.00740155 30.4884 7.89709e-06 30.2578V2.82669C7.89709e-06 2.34669 0.177786 1.93781 0.497786 1.60003C0.659627 1.43566 0.853744 1.30658 1.06792 1.22091C1.28209 1.13524 1.51168 1.09484 1.74223 1.10225H29.1911V1.08447Z" fill="black"/>
</g>
<defs>
<clipPath id="clip0_1_309">
<rect width="32" height="32" fill="white"/>
</clipPath>
</defs>
</svg>
