<svg xmlns="http://www.w3.org/2000/svg" width="32" height="32" viewBox="0 0 32 32" fill="none">
  <g clip-path="url(#clip0_1_325)">
    <path d="M15.5911 2.80908C19.7511 2.80908 20.2489 2.82686 21.8844 2.89797C23.4133 2.96908 24.2311 3.21797 24.7822 3.4313C25.5111 3.73353 26.0267 4.05353 26.5778 4.60464C27.1111 5.13797 27.4667 5.6713 27.7333 6.38241C27.9467 6.9513 28.2133 7.76908 28.2667 9.29797C28.3556 10.9335 28.3733 11.4313 28.3733 15.5913C28.3733 19.7513 28.3556 20.2491 28.2844 21.8846C28.2764 22.8742 28.0959 23.8548 27.7511 24.7824C27.4489 25.5113 27.1289 26.0269 26.5778 26.578C26.0444 27.1113 25.5111 27.4669 24.7822 27.7513C24.2311 27.9646 23.4133 28.2135 21.8844 28.2846C20.2489 28.3557 19.7511 28.3735 15.5911 28.3735C11.4311 28.3735 10.9333 28.3735 9.28 28.2846C8.2964 28.2745 7.32199 28.0941 6.4 27.7513C5.65333 27.4669 5.15556 27.1291 4.60444 26.578C4.05333 26.0446 3.71556 25.5113 3.43111 24.8002C3.08706 23.8662 2.90664 22.8799 2.89778 21.8846C2.82667 20.2491 2.80889 19.7513 2.80889 15.5913C2.80889 11.4313 2.80889 10.9335 2.89778 9.29797C2.96889 7.76908 3.21778 6.9513 3.43111 6.40019C3.71556 5.6713 4.05333 5.15575 4.60444 4.60464C5.13778 4.0713 5.67111 3.71575 6.38222 3.44908C6.95111 3.23575 7.76889 2.96908 9.28 2.91575C10.9333 2.82686 11.4133 2.80908 15.5911 2.80908ZM15.5911 0.00019292C11.36 0.00019292 10.8267 0.0179707 9.15556 0.0890818C7.50222 0.160193 6.36444 0.444637 5.36889 0.800193C4.35556 1.20908 3.48444 1.76019 2.61333 2.61353C1.77778 3.48464 1.24444 4.35575 0.817778 5.36908C0.426667 6.36464 0.16 7.50242 0.106667 9.15575C0 10.8446 0 11.378 0 15.5913C0 19.8046 0.0177778 20.3557 0.0888889 22.0091C0.16 23.6802 0.444444 24.8002 0.8 25.7957C1.20889 26.8269 1.76 27.698 2.61333 28.5691C3.48444 29.4224 4.35556 29.9557 5.36889 30.3646C6.36444 30.7557 7.50222 31.0224 9.15556 31.0757C10.8267 31.1646 11.36 31.1824 15.5911 31.1824C19.84 31.1824 20.3556 31.1646 22.0267 31.0935C23.68 31.0224 24.8178 30.738 25.8133 30.3646C26.852 29.9747 27.7926 29.3618 28.5689 28.5691C29.44 27.698 29.9733 26.8269 30.3644 25.7957C30.7556 24.818 31.0222 23.6802 31.0933 22.0091C31.1644 20.3557 31.1822 19.8224 31.1822 15.5913C31.1822 11.3424 31.1822 10.8269 31.0933 9.15575C31.0709 7.86252 30.8305 6.58234 30.3822 5.36908C29.9871 4.32875 29.368 3.38802 28.5689 2.61353C27.7897 1.82435 26.85 1.21199 25.8133 0.817971C24.6015 0.362325 23.3211 0.115856 22.0267 0.0890818C19.8826 0.00316998 17.7367 -0.0264699 15.5911 0.00019292Z" fill="black"/>
    <path d="M15.6444 7.11132C13.5227 7.11132 11.4878 7.95417 9.98755 9.45446C8.48726 10.9548 7.64441 12.9896 7.64441 15.1113C7.64441 17.233 8.48726 19.2679 9.98755 20.7682C11.4878 22.2685 13.5227 23.1113 15.6444 23.1113C17.7661 23.1113 19.801 22.2685 21.3013 20.7682C22.8016 19.2679 23.6444 17.233 23.6444 15.1113C23.6444 12.9896 22.8016 10.9548 21.3013 9.45446C19.801 7.95417 17.7661 7.11132 15.6444 7.11132ZM15.6444 20.3202C14.9615 20.3202 14.2853 20.1857 13.6545 19.9244C13.0236 19.6631 12.4503 19.28 11.9675 18.7972C11.4846 18.3143 11.1016 17.7411 10.8402 17.1102C10.5789 16.4793 10.4444 15.8031 10.4444 15.1202C10.4444 14.4373 10.5789 13.7611 10.8402 13.1303C11.1016 12.4994 11.4846 11.9261 11.9675 11.4433C12.4503 10.9604 13.0236 10.5774 13.6545 10.316C14.2853 10.0547 14.9615 9.92021 15.6444 9.92021C17.0235 9.92021 18.3462 10.4681 19.3214 11.4433C20.2966 12.4184 20.8444 13.7411 20.8444 15.1202C20.8444 16.4993 20.2966 17.822 19.3214 18.7972C18.3462 19.7724 17.0235 20.3202 15.6444 20.3202ZM23.8755 8.88909C24.3706 8.88909 24.8454 8.69243 25.1955 8.34236C25.5455 7.99229 25.7422 7.5175 25.7422 7.02243C25.7422 6.52736 25.5455 6.05256 25.1955 5.7025C24.8454 5.35243 24.3706 5.15576 23.8755 5.15576C23.3805 5.15576 22.9057 5.35243 22.5556 5.7025C22.2055 6.05256 22.0089 6.52736 22.0089 7.02243C22.0089 7.5175 22.2055 7.99229 22.5556 8.34236C22.9057 8.69243 23.3805 8.88909 23.8755 8.88909Z" fill="black"/>
  </g>
  <defs>
    <clipPath id="clip0_1_325">
      <rect width="32" height="32" fill="white"/>
    </clipPath>
  </defs>
</svg>
