<svg width="40" height="40" viewBox="0 0 40 40" fill="none" xmlns="http://www.w3.org/2000/svg">
<path d="M25 25.4128C27.3011 25.4128 29.3845 26.3455 30.8925 27.8535C32.4006 29.3616 33.3333 31.4449 33.3333 33.7461V37.0794H6.66663V33.7461C6.66663 31.4449 7.59937 29.3616 9.1074 27.8535C10.6154 26.3455 12.6988 25.4128 15 25.4128H25ZM20.3825 5.41277C22.1245 5.41277 23.7091 6.09212 24.8784 7.19815C26.0391 8.29616 26.7912 9.81537 26.8747 11.5066L26.8825 13.1692C26.8825 14.9347 26.1545 16.5342 24.9828 17.693C23.8043 18.8586 22.177 19.5794 20.3825 19.5794C18.6404 19.5794 17.0558 18.9001 15.8866 17.7941C14.7258 16.6961 13.9738 15.1768 13.8903 13.4856L13.8825 11.823C13.8825 10.0575 14.6104 8.45803 15.7822 7.29916C16.9606 6.13366 18.588 5.41277 20.3825 5.41277Z" stroke="black" stroke-width="2"/>
</svg>
