<svg xmlns="http://www.w3.org/2000/svg" width="32" height="32" viewBox="0 0 32 32" fill="none">
  <g clip-path="url(#clip0_1_321)">
    <path d="M16 0.5C7.16774 0.5 0 7.44375 0 16C0 24.5562 7.16774 31.5 16 31.5C24.8323 31.5 32 24.5562 32 16C32 7.44375 24.8323 0.5 16 0.5ZM22.4968 23.3062C22.2258 23.3062 22.0581 23.225 21.8065 23.0812C17.7806 20.7312 13.0968 20.6312 8.47097 21.55C8.21935 21.6125 7.89032 21.7125 7.70323 21.7125C7.07742 21.7125 6.68387 21.2313 6.68387 20.725C6.68387 20.0813 7.07742 19.775 7.56129 19.675C12.8452 18.5437 18.2452 18.6437 22.8516 21.3125C23.2452 21.5562 23.4774 21.775 23.4774 22.3438C23.4774 22.9125 23.0194 23.3062 22.4968 23.3062ZM24.2323 19.2062C23.8968 19.2062 23.671 19.0625 23.4387 18.9438C19.4065 16.6313 13.3935 15.7 8.04516 17.1063C7.73548 17.1875 7.56774 17.2687 7.27742 17.2687C6.5871 17.2687 6.02581 16.725 6.02581 16.0562C6.02581 15.3875 6.36129 14.9437 7.02581 14.7625C8.81936 14.275 10.6516 13.9125 13.3355 13.9125C17.5226 13.9125 21.5677 14.9188 24.7548 16.7563C25.2774 17.0562 25.4839 17.4437 25.4839 17.9875C25.4774 18.6625 24.9355 19.2062 24.2323 19.2062ZM26.2323 14.4438C25.8968 14.4438 25.6903 14.3625 25.4 14.2C20.8065 11.5437 12.5935 10.9062 7.27742 12.3438C7.04516 12.4062 6.75484 12.5063 6.44516 12.5063C5.59355 12.5063 4.94194 11.8625 4.94194 11.0312C4.94194 10.1812 5.48387 9.7 6.06452 9.5375C8.33548 8.89375 10.8774 8.5875 13.6452 8.5875C18.3548 8.5875 23.2903 9.5375 26.8968 11.575C27.4 11.8562 27.729 12.2438 27.729 12.9875C27.729 13.8375 27.0194 14.4438 26.2323 14.4438Z" fill="black"/>
  </g>
  <defs>
    <clipPath id="clip0_1_321">
      <rect width="32" height="32" fill="white"/>
    </clipPath>
  </defs>
</svg>
