<svg xmlns="http://www.w3.org/2000/svg" width="384" height="224" viewBox="0 0 384 224" fill="none">
  <path d="M188.315 0L188.485 135.437L138.872 9.448L172.781 140.539L93.3173 30.8693L158.84 149.379L54.5147 62.9147L147.531 161.395L24.904 103.573L139.571 175.837L6.34133 150.291L135.453 191.797L0 200.133L135.44 208.277L6.272 249.965L139.533 224.232L24.7653 296.656L147.477 238.664L54.32 337.277L158.768 250.667L93.0773 369.269L172.701 259.483L138.6 390.621L188.395 264.563L188.035 400L204.869 265.587L238.267 396.811L221.088 262.491L286.144 381.253L236.027 255.464L328.656 354.309L248.755 244.955L363.136 317.667L258.469 231.616L387.413 273.629L264.555 216.296L399.963 224.968L266.637 199.944L400 174.733L264.576 183.603L387.517 126.091L258.512 168.285L363.301 82.088L248.819 154.963L328.872 45.4933L236.109 144.469L286.397 18.6107L221.176 137.464L238.544 3.12L204.963 134.389L188.315 0Z" fill="#FFC3A0"/>
</svg>
