<svg xmlns="http://www.w3.org/2000/svg" width="382" height="221" viewBox="0 0 382 221" fill="none">
  <path d="M188.315 -179L188.485 -43.5627L138.872 -169.552L172.781 -38.4613L93.3173 -148.131L158.84 -29.6213L54.5147 -116.085L147.531 -17.6053L24.904 -75.4267L139.571 -3.16267L6.34133 -28.7093L135.453 12.7973L0 21.1333L135.44 29.2773L6.272 70.9653L139.533 45.232L24.7653 117.656L147.477 59.664L54.32 158.277L158.768 71.6667L93.0773 190.269L172.701 80.4827L138.6 211.621L188.395 85.5627L188.035 221L204.869 86.5867L238.267 217.811L221.088 83.4907L286.144 202.253L236.027 76.464L328.656 175.309L248.755 65.9547L363.136 138.667L258.469 52.616L387.413 94.6294L264.555 37.296L399.963 45.968L266.637 20.944L400 -4.26668L264.576 4.60268L387.517 -52.9093L258.512 -10.7147L363.301 -96.912L248.819 -24.0373L328.872 -133.507L236.109 -34.5307L286.397 -160.389L221.176 -41.536L238.544 -175.88L204.963 -44.6107L188.315 -179Z" fill="#FFC3A0"/>
</svg>
