<svg width="140" height="55" viewBox="0 0 140 55" fill="none" xmlns="http://www.w3.org/2000/svg">
<g clip-path="url(#clip0_1_29)">
<path fill-rule="evenodd" clip-rule="evenodd" d="M27.1364 1.53447C27.5293 1.53447 27.8478 1.85136 27.8478 2.24274V10.573C27.8478 10.964 27.5293 11.2813 27.1364 11.2813H19.5685V53.3092C19.5685 53.7006 19.25 54.0179 18.8575 54.0179H8.98993C8.59704 54.0179 8.27894 53.7006 8.27894 53.3092V11.2813H0.710996C0.318108 11.2813 0 10.964 0 10.573V2.24274C0 1.85136 0.318108 1.53447 0.710996 1.53447H27.1364ZM68.1215 1.53416C73.0385 1.53416 76.7771 2.73417 79.3359 5.13343C81.8955 7.5323 83.1745 10.707 83.1745 14.6552C83.1745 18.6042 81.9443 21.716 79.4866 23.9898C77.0282 26.2647 73.2399 27.4011 68.1215 27.4011V28.5258H71.1321C75.0951 28.5258 78.0305 29.4255 79.9384 31.225C81.8443 33.0244 82.7979 35.624 82.7979 39.0226V49.5193C82.7979 50.3693 82.8855 51.0443 83.0618 51.5434C83.2373 52.0436 83.45 52.4184 83.7015 52.6682C83.9518 52.9681 84.278 53.1684 84.6798 53.268V54.0176H75.2714C73.966 54.0176 73.0137 53.6686 72.4123 52.9681C71.8094 52.2687 71.5088 50.8687 71.5088 48.7694V37.1479C71.5088 34.6494 70.3793 33.3992 68.1215 33.3992V53.3093C68.1215 53.7007 67.803 54.0176 67.4102 54.0176H57.5438C57.1509 54.0176 56.8324 53.7007 56.8324 53.3093V2.24282C56.8324 1.85144 57.1509 1.53416 57.5438 1.53416H68.1215ZM96.6635 1.53427C97.056 1.53427 97.3749 1.85155 97.3749 2.24255V44.2709H106.824C107.217 44.2709 107.535 44.5878 107.535 44.9791V53.3094C107.535 53.7004 107.217 54.0177 106.824 54.0177H86.7963C86.4034 54.0177 86.0849 53.7004 86.0849 53.3094V2.24255C86.0849 1.85155 86.4034 1.53427 86.7963 1.53427H96.6635ZM39.7821 0C44.8203 0 49.0576 3.76602 49.6299 8.75289L54.5592 53.2314C54.6057 53.651 54.2763 54.0177 53.8525 54.0177H43.6498C43.2735 54.0177 42.9624 53.7262 42.9399 53.3522L42.4537 45.3952H37.1098L36.6239 53.3522C36.601 53.7262 36.2899 54.0177 35.9141 54.0177H25.711C25.2875 54.0177 24.9577 53.651 25.0042 53.2314L29.9339 8.75289C30.4958 3.85669 34.5903 0.13735 39.5081 0.0037196L39.7821 0ZM124.381 0C129.419 0 133.656 3.76602 134.228 8.75289L139.158 53.2314C139.204 53.651 138.875 54.0177 138.451 54.0177H128.248C127.872 54.0177 127.561 53.7262 127.538 53.3522L127.052 45.3952H121.709L121.222 53.3522C121.2 53.7262 120.889 54.0177 120.512 54.0177H110.31C109.886 54.0177 109.557 53.651 109.603 53.2314L114.533 8.75289C115.094 3.85669 119.189 0.13735 124.106 0.0037196L124.381 0ZM39.7821 12.031C39.4636 12.031 39.1997 12.2757 39.1761 12.5919L37.4864 35.6484H42.0774L40.3873 12.5919C40.3641 12.2757 40.1002 12.031 39.7821 12.031ZM124.381 12.031C124.062 12.031 123.798 12.2757 123.775 12.5919L122.085 35.6484H126.676L124.986 12.5919C124.962 12.2757 124.699 12.031 124.381 12.031ZM68.4978 9.7818H68.1215V22.5277H68.4978C69.4505 22.5277 70.2541 22.0776 70.907 21.1779C71.5583 20.2782 71.8846 18.6042 71.8846 16.1547C71.8846 13.7065 71.5583 12.0309 70.907 11.1316C70.2541 10.2319 69.4505 9.7818 68.4978 9.7818Z" fill="black"/>
</g>
<defs>
<clipPath id="clip0_1_29">
<rect width="140" height="55" fill="white"/>
</clipPath>
</defs>
</svg>
