<svg xmlns="http://www.w3.org/2000/svg" width="32" height="32" viewBox="0 0 32 32" fill="none">
  <g clip-path="url(#clip0_1_313)">
    <path d="M16.04 0H22C22 0 21.66 6.79111 30.26 7.28889V12.5333C30.26 12.5333 25.66 12.7822 22 10.2933L22.06 21.1378C22.06 23.0794 21.412 24.9774 20.198 26.5916C18.984 28.2058 17.2586 29.4636 15.2402 30.2058C13.2217 30.948 11.0009 31.1413 8.85882 30.7612C6.71673 30.3811 4.74962 29.4447 3.20645 28.0705C1.66328 26.6963 0.613403 24.9461 0.189683 23.0413C-0.234037 21.1366 -0.0125522 19.1629 0.826107 17.37C1.66477 15.5772 3.0829 14.0458 4.90105 12.9696C6.7192 11.8935 8.85563 11.3209 11.04 11.3244H12.58V16.7111C11.5752 16.4343 10.4977 16.4463 9.50104 16.7454C8.50434 17.0444 7.63912 17.6152 7.02853 18.3767C6.41793 19.1381 6.09307 20.0513 6.10016 20.9864C6.10725 21.9214 6.44593 22.8306 7.06802 23.5847C7.6901 24.3387 8.56389 24.8992 9.56505 25.1862C10.5662 25.4733 11.6437 25.4724 12.6442 25.1836C13.6448 24.8948 14.5173 24.3329 15.1378 23.5778C15.7582 22.8227 16.0949 21.9128 16.1 20.9778L16.04 0Z" fill="black"/>
  </g>
  <defs>
    <clipPath id="clip0_1_313">
      <rect width="32" height="32" fill="white"/>
    </clipPath>
  </defs>
</svg>
