<svg width="32" height="32" viewBox="0 0 32 32" fill="none" xmlns="http://www.w3.org/2000/svg">
<path d="M31.36 5.54658C30.5179 7.047 29.4653 8.36071 28.2489 9.42925C28.2489 9.53591 28.2489 9.70658 28.2845 9.91991L28.32 10.4106C28.3152 14.6201 27.2696 18.7333 25.3156 22.2292C24.3022 24.0426 23.1111 25.6852 21.7245 27.0932C20.2373 28.5824 18.5392 29.7385 16.7111 30.5066C14.1143 31.6204 11.3404 32.011 8.5993 31.6488C5.85815 31.2866 3.22155 30.1811 0.888916 28.4159C1.49336 28.4586 1.97336 28.5012 2.36447 28.5012C5.28003 28.5012 7.87558 27.4346 10.1511 25.3012C8.84565 25.2525 7.58384 24.7256 6.53515 23.7913C5.48645 22.857 4.70107 21.5601 4.28447 20.0746C5.21831 20.3479 6.19712 20.3035 7.11114 19.9466C5.69997 19.6147 4.42976 18.7017 3.52003 17.3652C2.5858 16.0439 2.08074 14.362 2.0978 12.6292V12.5652C2.91558 13.0772 3.84003 13.3546 4.90669 13.4186C4.05793 12.7415 3.36314 11.8213 2.88514 10.7412C2.40713 9.66098 2.16097 8.4549 2.16892 7.23191C2.16892 5.93058 2.4178 4.67191 2.96892 3.41325C4.51127 5.73093 6.45157 7.62273 8.6578 8.95991C10.9128 10.331 13.3856 11.1092 15.9111 11.2426C15.7701 10.6889 15.6924 10.1147 15.68 9.53591C15.68 7.46658 16.2845 5.69591 17.5111 4.24525C18.1008 3.52555 18.8076 2.9591 19.5875 2.58109C20.3673 2.20308 21.2037 2.02159 22.0445 2.04791C22.8907 2.04885 23.7279 2.25752 24.5044 2.66108C25.281 3.06464 25.9805 3.65457 26.56 4.39458C27.9822 4.07458 29.2978 3.45591 30.5245 2.58125C30.078 4.32482 29.1005 5.80252 27.7867 6.71991C29.1022 6.50658 30.2756 6.12258 31.36 5.56791V5.54658Z" fill="black"/>
</svg>
